<svg xmlns="http://www.w3.org/2000/svg" xmlns:xlink="http://www.w3.org/1999/xlink" width="112" height="112" viewBox="0 0 112 112"><defs><linearGradient id="a" x1="0.5" x2="0.5" y2="1" gradientUnits="objectBoundingBox"><stop offset="0" stop-color="#134e4a"/><stop offset="1" stop-color="#2dd4bf"/></linearGradient></defs><g transform="translate(-832 -342)"><circle cx="56" cy="56" r="56" transform="translate(832 342)" fill="#fff"/><path d="M53.111,45.652a5.071,5.071,0,0,0-1.611.289,4.55,4.55,0,0,1,1.921,2.686c.021.145.062.248.083.393a2.27,2.27,0,0,1,.041.372c.083,1.818-.475,2.045-.868,3.12a4.415,4.415,0,0,0,.289,4.07,2.468,2.468,0,0,0,.248.455c-.785-5.227,3.574-6.012,4.38-7.644.062-1.426-1.116-2.376-2.045-3.037a4.564,4.564,0,0,0-2.438-.7Zm6.57,1.178a2.391,2.391,0,0,0-.041.6c-.021.165-.021.372-.041.537a4.487,4.487,0,0,1-.145.5,4.643,4.643,0,0,1-.165.5c-.083.165-.145.31-.227.475-.062.083-.1.165-.165.248l-.124.186c-.1.145-.207.289-.31.413a3.161,3.161,0,0,1-.372.372v.021c-.124.1-.248.227-.393.331-.434.331-.93.578-1.384.888a3.08,3.08,0,0,0-.413.31,3.021,3.021,0,0,0-.393.331,3.342,3.342,0,0,0-.372.393,3.079,3.079,0,0,0-.31.413c-.1.145-.207.289-.289.434-.083.165-.145.31-.227.475a4.326,4.326,0,0,0-.165.475c-.062.186-.1.351-.145.517-.021.083-.021.186-.041.269s-.021.165-.041.248c0,.165-.021.351-.021.517a2.243,2.243,0,0,0,.021.372,2.345,2.345,0,0,0,.062.516,4.234,4.234,0,0,0,.1.5c.062.165.1.331.165.5.041.1.1.207.145.289L49.64,56.6c-.806-.227-1.591-.434-2.4-.62l-1.3-.31c-1.24-.248-2.5-.434-3.76-.558-.041,0-.062-.021-.1-.021a36.94,36.94,0,0,0-3.7-.186c-.909,0-1.818.041-2.706.1-1.26.083-2.521.248-3.781.455-.31.041-.62.1-.93.165-.64.124-1.26.269-1.859.413l-.93.248c-.31.124-.6.269-.888.393l-.682.31c-.041.021-.083.021-.1.041-.207.1-.393.186-.578.289a1.007,1.007,0,0,0-.145.062c-.227.1-.455.227-.64.331-.145.062-.289.145-.413.207a1.863,1.863,0,0,1-.186.1c-.186.1-.372.207-.537.31a5.2,5.2,0,0,0-.5.31c-.145.1-.289.186-.413.289-.021.021-.041.021-.062.041a4.772,4.772,0,0,0-.393.289l-.041.041-.31.248c-.041.021-.083.062-.124.083-.1.083-.207.186-.31.269-.021.041-.062.062-.083.083-.124.124-.248.227-.372.351-.021,0-.021.021-.041.041-.124.1-.248.227-.372.351-.021.021-.021.041-.041.041-.1.1-.207.207-.31.331-.041.041-.1.083-.145.124-.1.124-.227.248-.351.372-.021.041-.062.062-.083.1-.165.165-.31.331-.475.5l-.062.062a12.194,12.194,0,0,1-1.054,1.012,11.745,11.745,0,0,1-1.157.909c-.413.289-.806.537-1.24.785a12.592,12.592,0,0,1-1.3.62c-.434.186-.888.351-1.343.5a23.122,23.122,0,0,1-2.521.6,4.395,4.395,0,0,0-.517.062c-.186.041-.351.083-.516.124l-.5.186a5.283,5.283,0,0,0-.5.227c-.145.1-.31.186-.455.289a3.372,3.372,0,0,0-.413.351A3.537,3.537,0,0,0,7.6,68.3c-.124.145-.248.269-.351.413-.1.165-.227.31-.31.475a3.64,3.64,0,0,0-.289.475c-.083.186-.165.351-.227.537-.062.165-.124.351-.186.537a4.23,4.23,0,0,0-.1.5c0,.021-.021.041-.021.062-.041.186-.041.434-.062.558a2.8,2.8,0,0,0-.041.413,1.176,1.176,0,0,0,.021.269,2.192,2.192,0,0,0,.083.393,2.761,2.761,0,0,0,.145.372v.021a3.593,3.593,0,0,0,.227.372,4.2,4.2,0,0,0,.269.372c.1.1.227.227.351.331a3.02,3.02,0,0,0,.393.331,4.808,4.808,0,0,0,1.26.909c.1.062.207.1.331.165.021,0,.041.021.062.021a.186.186,0,0,0,.021.1,4.238,4.238,0,0,0,.1.5,2.785,2.785,0,0,0,.165.5c.062.124.1.248.165.372a.452.452,0,0,0,.062.1c.083.165.165.31.248.455l.31.434c.1.124.227.269.351.393s.248.227.393.351a.072.072,0,0,0,.041.021,4.534,4.534,0,0,0,.372.289,3.289,3.289,0,0,0,.455.269,3.358,3.358,0,0,0,.475.227,2.43,2.43,0,0,0,.413.145c.021.021.041.021.083.041.083.021.186.041.269.062a8.219,8.219,0,0,0,.083,2.541c.186.413,1.095-.847,2-2.293a12.608,12.608,0,0,0,0,3.595c.227.516,1.467-1.095,2.541-2.872a23.877,23.877,0,0,1,29.42,21.032,4.047,4.047,0,0,0-4.277-3.161,10.776,10.776,0,0,1-3.368,4.711,13.247,13.247,0,0,0-.207-4.132,13.362,13.362,0,0,1-2.562,5.206,5.771,5.771,0,0,1-4.958-2.231c-.083-.062-.1-.186-.165-.269a3.725,3.725,0,0,1-.165-.434,1.715,1.715,0,0,1-.124-.434,3.194,3.194,0,0,1-.021-.455v-.31a3.309,3.309,0,0,1,.1-.434,3.56,3.56,0,0,1,.145-.434,4.647,4.647,0,0,1,.248-.434c.351-.992.351-1.8-.289-2.273a2.353,2.353,0,0,0-.393-.207c-.083-.021-.186-.062-.269-.083-.062-.021-.1-.041-.165-.062a3.3,3.3,0,0,0-.434-.1,1.574,1.574,0,0,0-.434-.062,3.37,3.37,0,0,0-.455-.041c-.1,0-.207.021-.31.021a1.613,1.613,0,0,0-.455.062,3.209,3.209,0,0,0-.434.083,3.561,3.561,0,0,0-.434.145c-.145.062-.269.124-.413.186-.124.062-.248.145-.393.207-4.814,3.14-1.942,10.5,1.343,12.623a10.315,10.315,0,0,0-2.851.764l-.041.041a19.467,19.467,0,0,0,2.789,1.384c1.322.434,2.727.826,3.347.992v.021a19.988,19.988,0,0,0,5.206.372A19.651,19.651,0,0,0,54.7,96.559c.041.186.083.351.124.537.062.372.145.764.186,1.157v.021c.041.186.062.372.083.537v.083a5.071,5.071,0,0,1,.041.537c.021.227.041.455.041.682v.331c0,.1.021.227.021.331,0,.124-.021.248-.021.372v.289c0,.145-.021.269-.021.413a1.269,1.269,0,0,1-.021.269c0,.145-.021.289-.021.455a.571.571,0,0,0-.021.186c-.021.165-.041.31-.062.475a.571.571,0,0,1-.021.186c-.021.207-.062.393-.083.6v.041c-.041.186-.083.393-.124.578v.062l-.124.558c0,.021-.021.062-.021.083a5.545,5.545,0,0,1-.145.558v.062c-.062.207-.124.393-.165.578a.064.064,0,0,0-.021.041l-.186.62c-.083.207-.145.393-.227.6s-.145.413-.227.6c-.083.207-.165.393-.248.6h-.021c-.083.186-.165.393-.269.578a1.006,1.006,0,0,1-.062.145c-.021.021-.021.041-.041.062a19.555,19.555,0,0,1-5.805,6.942c-.165.1-.331.227-.5.351-.041.041-.1.062-.145.1-.145.1-.289.207-.455.31l.062.124h.021l.868-.124h.021c.537-.083,1.074-.186,1.611-.289a3.606,3.606,0,0,0,.455-.1c.1-.021.186-.041.289-.062.145-.021.289-.062.434-.083.124-.041.248-.062.372-.1a39.155,39.155,0,0,0,5.991-1.983,33.087,33.087,0,0,1-12.83,10.475,33.993,33.993,0,0,0,7.045-1.219,33.009,33.009,0,0,0,19.524-15.6,32.977,32.977,0,0,1-5.558,13.284A32.467,32.467,0,0,0,78.668,99.658a32.9,32.9,0,0,1,.6,9.958c14.917-20.8,1.24-42.374-4.483-48.055-.021-.041-.041-.062-.041-.1-.021.021-.021.021-.021.041,0-.021,0-.021-.021-.041,0,.248-.021.5-.041.744-.062.475-.124.93-.207,1.384-.1.455-.227.909-.351,1.364-.145.434-.31.888-.5,1.322-.186.413-.393.847-.62,1.26-.227.393-.475.806-.744,1.178-.269.393-.558.764-.847,1.116-.31.372-.64.7-.971,1.033-.207.186-.393.351-.6.516l-.475.413a11.531,11.531,0,0,1-1.157.806c-.393.248-.806.5-1.219.7-.434.207-.868.393-1.3.578-.434.165-.888.31-1.343.434s-.93.227-1.384.31c-.475.083-.95.124-1.4.165-.331.021-.661.041-.992.041-.475,0-.95-.041-1.4-.083a13.9,13.9,0,0,1-2.789-.558h-.021c.455-.041.909-.083,1.364-.165.475-.083.93-.186,1.384-.31s.909-.269,1.343-.434a12.407,12.407,0,0,0,1.3-.578c.434-.207.826-.434,1.24-.682.393-.269.785-.537,1.157-.826a16.868,16.868,0,0,0,2.025-1.942q.465-.558.868-1.116c.041-.062.083-.145.124-.207.207-.331.413-.661.6-.992.227-.413.434-.826.62-1.26s.351-.868.5-1.322c.145-.434.248-.888.351-1.343.083-.475.165-.93.207-1.384.041-.475.083-.95.083-1.4,0-.331-.021-.661-.041-.992-.041-.475-.1-.93-.165-1.384-.083-.475-.186-.93-.31-1.384-.145-.434-.289-.888-.455-1.322s-.372-.868-.578-1.281c-.227-.413-.455-.826-.7-1.219-.269-.393-.537-.764-.826-1.136-.31-.351-.62-.7-.95-1.054-.165-.165-.351-.351-.537-.517-.93-.723-1.9-1.4-2.872-2.025a3.846,3.846,0,0,0-.413-.207,8.05,8.05,0,0,0-1.963-.868Z" transform="translate(841.994 312.348)" fill-rule="evenodd" fill="url(#a)"/></g></svg>