<svg xmlns="http://www.w3.org/2000/svg" xmlns:xlink="http://www.w3.org/1999/xlink" width="179" height="116.979" viewBox="0 0 179 116.979"><defs><linearGradient id="a" x1="0.5" x2="0.5" y2="1" gradientUnits="objectBoundingBox"><stop offset="0" stop-color="#134e4a"/><stop offset="1" stop-color="#2dd4bf"/></linearGradient></defs><g transform="translate(-864 -482.011)"><rect width="24" height="51.28" rx="12" transform="matrix(0.819, 0.574, -0.574, 0.819, 988.34, 482.011)" fill="#fff"/><rect width="24" height="55.788" rx="12" transform="matrix(0.819, -0.574, 0.574, 0.819, 890.356, 553.291)" fill="#fff"/><rect width="179" height="72" rx="20" transform="translate(864 505)" fill="#fff"/><path d="M34.992,23.5H62.847v2.219h-25.3v16.7H61.338v2.219H37.546V62.966H63.137v2.219H34.992V23.5Zm30.35,0H68.3L81.417,41.829,94.822,23.5,113.055.207,83.1,43.756,98.536,65.185H95.46l-14.043-19.5-14.1,19.5H64.3L79.85,43.756,65.343,23.5Zm34.3,2.219V23.5h31.742v2.219H116.758v39.47H114.2V25.714H99.64ZM.145,23.5H3.337l44.011,66L29.16,65.185,2.814,26.648,2.7,65.185H.145V23.495Zm130.98,38.8a.929.929,0,1,1,.912-.928.9.9,0,0,1-.912.928Zm2.508-2.443H135a1.25,1.25,0,0,0,1.354,1.24c.888,0,1.391-.535,1.391-1.539V53.2h1.391V59.56a2.575,2.575,0,0,1-2.77,2.849,2.505,2.505,0,0,1-2.732-2.556Zm7.322-.08h1.379c.118.853.95,1.4,2.149,1.4,1.117,0,1.937-.58,1.937-1.377,0-.685-.521-1.1-1.708-1.377l-1.155-.28c-1.62-.38-2.36-1.166-2.36-2.487,0-1.6,1.3-2.668,3.26-2.668,1.82,0,3.15,1.066,3.23,2.58h-1.354a1.712,1.712,0,0,0-1.894-1.346c-1.1,0-1.832.53-1.832,1.34,0,.642.472,1.01,1.64,1.284l.987.243c1.838.43,2.6,1.178,2.6,2.53,0,1.72-1.33,2.8-3.453,2.8-1.987,0-3.323-1.029-3.422-2.637Z" transform="translate(879.855 495.793)" fill="url(#a)"/></g></svg>