<svg xmlns="http://www.w3.org/2000/svg" xmlns:xlink="http://www.w3.org/1999/xlink" width="584" height="360" viewBox="0 0 584 360"><defs><linearGradient id="a" x1="0.5" x2="0.5" y2="1" gradientUnits="objectBoundingBox"><stop offset="0" stop-color="#134e4a"/><stop offset="1" stop-color="#2dd4bf"/></linearGradient><linearGradient id="f" x1="0.682" y1="0.175" x2="0.278" y2="0.898" xlink:href="#a"/><linearGradient id="g" x1="0.433" y1="0.552" x2="1.592" y2="-0.183" xlink:href="#a"/><linearGradient id="h" x1="-44.138" y1="0.134" x2="53.279" y2="0.134" xlink:href="#a"/><linearGradient id="i" x1="-0.044" y1="0.5" x2="1.015" y2="0.5" xlink:href="#a"/><linearGradient id="j" x1="-97.138" y1="0.362" x2="0.279" y2="0.362" xlink:href="#a"/><linearGradient id="k" x1="-1.039" y1="0.503" x2="1.008" y2="0.503" xlink:href="#a"/><linearGradient id="l" x1="1.306" y1="-2.111" x2="0.044" y2="2.016" xlink:href="#a"/></defs><g transform="translate(-960 -592)"><rect width="96" height="224" rx="48" transform="translate(1308 592)" fill="#fff"/><rect width="168" height="224" rx="84" transform="translate(1165 728)" fill="#fff"/><rect width="584" height="184" rx="40" transform="translate(960 656)" fill="#fff"/><g transform="translate(996 616)"><path d="M253.111,313.094a10.135,10.135,0,0,1-4.854-1.271l-15.372-9.13c-2.312-1.271-1.156-1.734-.462-1.965a28,28,0,0,0,6.935-3.121,1.063,1.063,0,0,1,1.156.116l11.789,7.05a1.469,1.469,0,0,0,1.387,0l46.115-26.7a1.328,1.328,0,0,0,.693-1.271v-53.28a1.328,1.328,0,0,0-.693-1.271L253.688,195.67a1.469,1.469,0,0,0-1.387,0l-46.115,26.582a1.45,1.45,0,0,0-.693,1.271V276.8a1.45,1.45,0,0,0,.693,1.271l12.6,7.281c6.819,3.467,11.1-.578,11.1-4.623V228.146a1.405,1.405,0,0,1,1.387-1.387h5.894a1.405,1.405,0,0,1,1.387,1.387v52.587c0,9.13-4.97,14.447-13.638,14.447-2.658,0-4.739,0-10.633-2.889l-12.135-6.935a9.754,9.754,0,0,1-4.854-8.437v-53.28a9.754,9.754,0,0,1,4.854-8.437l46.115-26.7a10.315,10.315,0,0,1,9.708,0l46.115,26.7a9.754,9.754,0,0,1,4.854,8.437v53.28a9.754,9.754,0,0,1-4.854,8.437l-46.115,26.7A11.829,11.829,0,0,1,253.111,313.094Zm14.216-36.637c-20.226,0-24.386-9.246-24.386-17.105a1.405,1.405,0,0,1,1.387-1.387h6.01a1.188,1.188,0,0,1,1.271,1.156c.925,6.126,3.583,9.13,15.834,9.13,9.708,0,13.869-2.2,13.869-7.4,0-3-1.156-5.2-16.3-6.7-12.6-1.271-20.457-4.045-20.457-14.1,0-9.362,7.859-14.909,21.035-14.909,14.794,0,22.075,5.085,23,16.181a1.864,1.864,0,0,1-.347,1.04,1.427,1.427,0,0,1-.925.462h-6.01a1.354,1.354,0,0,1-1.271-1.04c-1.387-6.357-4.97-8.437-14.447-8.437-10.633,0-11.9,3.7-11.9,6.472,0,3.352,1.5,4.392,15.834,6.241,14.216,1.849,20.919,4.507,20.919,14.447C290.326,270.678,282,276.457,267.326,276.457Z" transform="translate(-0.231)" fill="url(#a)"/><path d="M110.028,104.712a5.88,5.88,0,0,0-3-5.085l-49-28.2a7.112,7.112,0,0,0-2.658-.809H54.9a5.5,5.5,0,0,0-2.658.809l-49,28.2a5.88,5.88,0,0,0-3,5.085l.116,75.818a2.872,2.872,0,0,0,1.5,2.543,2.623,2.623,0,0,0,2.889,0l29.125-16.643a5.88,5.88,0,0,0,3-5.085V125.862a5.88,5.88,0,0,1,3-5.085l12.367-7.166a5.6,5.6,0,0,1,3-.809,4.965,4.965,0,0,1,2.889.809L70.5,120.777a5.88,5.88,0,0,1,3,5.085v35.482a5.88,5.88,0,0,0,3,5.085l29.125,16.643a2.821,2.821,0,0,0,3,0,2.872,2.872,0,0,0,1.5-2.543l-.116-75.818Z" transform="translate(-0.231)" fill="url(#a)"/><path d="M345.571.347a3.181,3.181,0,0,0-2.889,0,3.012,3.012,0,0,0-1.5,2.543V78.014a2.081,2.081,0,0,1-3.121,1.849l-12.251-7.05a5.957,5.957,0,0,0-5.894,0l-49,28.316a5.88,5.88,0,0,0-3,5.085V162.73a5.88,5.88,0,0,0,3,5.085l49,28.316a5.957,5.957,0,0,0,5.894,0l49-28.316a5.88,5.88,0,0,0,3-5.085V21.844a5.927,5.927,0,0,0-3-5.2L345.571.347Zm-4.507,143.776a1.328,1.328,0,0,1-.693,1.271L323.612,155.1a1.714,1.714,0,0,1-1.5,0l-16.758-9.708a1.45,1.45,0,0,1-.693-1.271V124.706a1.328,1.328,0,0,1,.693-1.271l16.758-9.708a1.714,1.714,0,0,1,1.5,0l16.758,9.708a1.45,1.45,0,0,1,.693,1.271v19.417Z" transform="translate(-0.231)" fill="url(#a)"/><g transform="translate(400.816 70.501)"><path d="M107.6,53.743a5.772,5.772,0,0,0,2.889-5.085V34.9a6.021,6.021,0,0,0-2.889-5.085L58.944,1.618a5.957,5.957,0,0,0-5.894,0l-49,28.316a5.88,5.88,0,0,0-3,5.085V91.536a5.88,5.88,0,0,0,3,5.085L52.7,124.359a5.74,5.74,0,0,0,5.779,0l29.472-16.412a2.9,2.9,0,0,0,0-5.085L38.718,74.546A3.012,3.012,0,0,1,37.215,72V54.321a2.872,2.872,0,0,1,1.5-2.543l15.372-8.784a2.821,2.821,0,0,1,3,0l15.372,8.784a3.012,3.012,0,0,1,1.5,2.543V68.19a2.872,2.872,0,0,0,1.5,2.543,2.821,2.821,0,0,0,3,0L107.6,53.743Z" fill="url(#a)"/><path d="M55.245,51.084a1.05,1.05,0,0,1,1.156,0l9.362,5.432a1.214,1.214,0,0,1,.578,1.04V68.421a1.214,1.214,0,0,1-.578,1.04L56.4,74.893a1.05,1.05,0,0,1-1.156,0l-9.362-5.432a1.214,1.214,0,0,1-.578-1.04V57.557a1.214,1.214,0,0,1,.578-1.04l9.362-5.432Z" fill="url(#a)"/></g><g transform="translate(133.837 70.501)"><path d="M57.9,1.849a5.957,5.957,0,0,0-5.894,0L3.352,29.934A5.772,5.772,0,0,0,.462,35.019V91.3A6.021,6.021,0,0,0,3.352,96.39l48.657,28.085a5.957,5.957,0,0,0,5.894,0L106.561,96.39A5.772,5.772,0,0,0,109.45,91.3V35.019a6.021,6.021,0,0,0-2.889-5.085L57.9,1.849Z" fill="url(#f)"/><path d="M51.893,1.849,3.121,29.934A5.994,5.994,0,0,0,0,35.019V91.3A5.566,5.566,0,0,0,1.5,95L56.285,1.156a6.6,6.6,0,0,0-4.392.693Z" fill="none"/><path d="M56.632,125.053a7.07,7.07,0,0,0,1.387-.578L106.792,96.39a5.88,5.88,0,0,0,3-5.085V35.019a5.886,5.886,0,0,0-1.734-4.045L56.632,125.053Z" fill="none"/><path d="M106.676,29.934,57.788,1.849a8.025,8.025,0,0,0-1.5-.578L1.5,95.119a6.082,6.082,0,0,0,1.618,1.387l48.888,28.085a5.635,5.635,0,0,0,4.507.578L107.948,31.09a6.058,6.058,0,0,0-1.271-1.156Z" fill="url(#g)"/><g transform="translate(0 -9.246)"><path d="M109.8,100.551V44.265a5.994,5.994,0,0,0-3.121-5.085L57.788,11.1a5.106,5.106,0,0,0-1.849-.693l53.512,91.42a2.33,2.33,0,0,0,.347-1.271Z" fill="none"/><path d="M3.121,39.18A5.994,5.994,0,0,0,0,44.265v56.285a6.249,6.249,0,0,0,3.121,5.085l48.888,28.085a5.445,5.445,0,0,0,3.814.693L3.467,39.065l-.347.116Z" fill="none"/><path d="M50.391.809l-.693.347h.925Z" fill-rule="evenodd" fill="url(#h)"/><path d="M106.792,105.636a6.571,6.571,0,0,0,2.889-3.7L56.054,10.4a5.871,5.871,0,0,0-4.161.693L3.352,39.065,55.707,134.53a8.057,8.057,0,0,0,2.2-.693l48.888-28.2Z" fill-rule="evenodd" fill="url(#i)"/><path d="M111.3,104.712l-.347-.578v.809Z" fill-rule="evenodd" fill="url(#j)"/><path d="M106.792,105.636,58.019,133.721a6.973,6.973,0,0,1-2.2.693l.925,1.734,54.089-31.321v-.693l-1.387-2.312a5.371,5.371,0,0,1-2.658,3.814Z" fill-rule="evenodd" fill="url(#k)"/><path d="M106.792,105.636,58.019,133.721a6.973,6.973,0,0,1-2.2.693l.925,1.734,54.089-31.321v-.693l-1.387-2.312a5.371,5.371,0,0,1-2.658,3.814Z" fill-rule="evenodd" fill="url(#l)"/></g></g></g></g></svg>