<svg xmlns="http://www.w3.org/2000/svg" xmlns:xlink="http://www.w3.org/1999/xlink" width="197.559" height="160.804" viewBox="0 0 197.559 160.804"><defs><linearGradient id="a" x1="0.5" x2="0.5" y2="1" gradientUnits="objectBoundingBox"><stop offset="0" stop-color="#134e4a"/><stop offset="1" stop-color="#2dd4bf"/></linearGradient></defs><g transform="translate(-1184.1 -330.486)"><ellipse cx="22.5" cy="17.5" rx="22.5" ry="17.5" transform="translate(1328 424)" fill="#fff"/><ellipse cx="67.753" cy="47.013" rx="67.753" ry="47.013" transform="translate(1184.1 376.832) rotate(-20)" fill="#fff"/><rect width="180.411" height="73.838" rx="20" transform="matrix(0.97, -0.242, 0.242, 0.97, 1188.743, 419.645)" fill="#fff"/><path d="M129.012,64.8a30.9,30.9,0,0,0-13.595,3.164c-1.406-2.783-2.813-5.215-3.047-7.032a19.448,19.448,0,0,1-.264-5.918,47.463,47.463,0,0,1,1.787-6.387c-.029-.264-.322-1.553-3.34-1.582s-5.625.586-5.918,1.377a33.65,33.65,0,0,0-1.26,4.483c-.527,2.754-6.036,12.511-9.171,17.638a17.986,17.986,0,0,1-2.08-5.157,19.448,19.448,0,0,1-.264-5.918,47.463,47.463,0,0,1,1.787-6.387c-.029-.264-.322-1.553-3.34-1.582s-5.625.586-5.918,1.377-.615,2.666-1.26,4.483c-.615,1.817-7.94,18.107-9.845,22.355-.967,2.168-1.817,3.9-2.432,5.069s-.029.088-.088.205c-.527,1-.82,1.553-.82,1.553v.029c-.41.732-.85,1.436-1.055,1.436-.146,0-.439-1.963.059-4.659,1.084-5.655,3.721-14.474,3.692-14.8,0-.146.5-1.7-1.7-2.49a2.67,2.67,0,0,0-3.076.527c-.176,0-.322.469-.322.469S69.915,57.128,63,57.128c-4.336,0-10.313,4.717-13.273,9.024-1.875,1.025-5.86,3.194-10.079,5.508-1.611.879-3.282,1.817-4.864,2.666l-.322-.352C26.083,65.039,10.583,58.71,11.228,46.7c.234-4.366,1.758-15.88,29.768-29.827C63.938,5.444,82.308,8.579,85.5,15.552c4.541,9.962-9.815,28.479-33.665,31.145-9.083,1.025-13.859-2.49-15.06-3.809-1.26-1.377-1.436-1.436-1.9-1.172-.762.41-.293,1.641,0,2.373.7,1.846,3.633,5.127,8.614,6.768,4.366,1.436,15.031,2.227,27.922-2.754,14.445-5.6,25.725-21.125,22.414-34.1C90.454.785,68.538-3.551,47.823,3.8,35.488,8.2,22.127,15.054,12.517,24.049,1.09,34.714-.726,44.031.035,47.9,2.7,61.7,21.717,70.694,29.335,77.345c-.381.205-.732.41-1.055.586C24.471,79.806,9.968,87.395,6.335,95.423c-4.1,9.083.645,15.617,3.809,16.5,9.786,2.725,19.806-2.168,25.227-10.225,5.391-8.057,4.747-18.517,2.256-23.293l-.088-.176,2.989-1.758c1.934-1.143,3.838-2.2,5.508-3.106a36.479,36.479,0,0,0-1.963,9.962c-.41,5.157,1.7,11.837,4.483,14.474a4.959,4.959,0,0,0,3.6,1.172c3.223,0,4.688-2.666,6.3-5.86,1.992-3.9,3.75-8.409,3.75-8.409s-2.2,12.218,3.809,12.218c2.2,0,4.395-2.842,5.391-4.307v.029s.059-.088.176-.293c.234-.352.352-.557.352-.557v-.059c.879-1.524,2.842-5.01,5.772-10.782,3.78-7.442,7.413-16.759,7.413-16.759a53.48,53.48,0,0,0,1.436,6.036,57.826,57.826,0,0,0,3.135,7.032c-.879,1.231-1.406,1.934-1.406,1.934l.029.029c-.7.938-1.494,1.934-2.315,2.93-2.989,3.575-6.563,7.647-7.032,8.819-.557,1.377-.439,2.4.645,3.223a5.863,5.863,0,0,0,3.692.586,16.447,16.447,0,0,0,5.508-1.26,19.077,19.077,0,0,0,4.747-2.49A10.568,10.568,0,0,0,98.1,81.681a18.792,18.792,0,0,0-1.729-6.592c.264-.381.527-.762.791-1.172a123.652,123.652,0,0,0,8.2-14.21,53.478,53.478,0,0,0,1.436,6.036,42.347,42.347,0,0,0,2.666,6.036c-4.336,3.545-7.061,7.647-8,10.343-1.729,4.981-.381,7.237,2.168,7.764a7.8,7.8,0,0,0,4.014-.82,18.176,18.176,0,0,0,5.069-2.608c2.93-2.168,5.743-5.186,5.6-9.259a17.749,17.749,0,0,0-1.26-5.479,28.545,28.545,0,0,1,14.533-1.67c13.038,1.524,15.617,9.669,15.118,13.068a8.754,8.754,0,0,1-4.131,5.86c-.908.557-1.2.762-1.113,1.172.117.615.527.586,1.318.469,1.084-.176,6.856-2.783,7.09-9.054.352-8.057-7.3-16.847-20.861-16.759ZM28.456,98.7c-4.307,4.717-10.372,6.5-12.95,4.981-2.783-1.611-1.7-8.555,3.6-13.566a68.938,68.938,0,0,1,10.167-7.589c.615-.381,1.553-.938,2.666-1.611a3.044,3.044,0,0,1,.293-.176c.205-.117.439-.264.674-.41A18.689,18.689,0,0,1,28.456,98.7Zm31.5-21.418c-1.494,3.662-4.659,13.068-6.563,12.54-1.641-.439-2.637-7.559-.322-14.591a32.572,32.572,0,0,1,5.127-9.405c2.373-2.637,4.952-3.516,5.6-2.432C64.553,64.8,60.89,75,59.953,77.286ZM85.941,89.709c-.645.322-1.231.557-1.494.381-.205-.117.264-.557.264-.557s3.252-3.487,4.541-5.1c.732-.938,1.611-2.022,2.549-3.252v.352C91.8,85.754,87.758,88.567,85.941,89.709Zm20.041-4.571c-.469-.352-.41-1.436,1.172-4.834a18.111,18.111,0,0,1,4.454-5.743,7.256,7.256,0,0,1,.439,2.52C112.018,82.355,108.268,84.318,105.982,85.138Z" transform="translate(1216.116 359.759)" fill="url(#a)"/></g></svg>