<svg xmlns="http://www.w3.org/2000/svg" xmlns:xlink="http://www.w3.org/1999/xlink" width="76" height="76" viewBox="0 0 76 76"><defs><linearGradient id="a" x1="0.5" x2="0.5" y2="1" gradientUnits="objectBoundingBox"><stop offset="0" stop-color="#134e4a"/><stop offset="1" stop-color="#2dd4bf"/></linearGradient></defs><g transform="translate(-1208 -484)"><path d="M38,0A38,38,0,1,1,0,38,38.046,38.046,0,0,1,38,0Z" transform="translate(1208 484)" fill="#fff"/><path d="M25.517,0Q15.309,0,12.758,10.146q3.828-5.073,8.931-3.8c1.941.482,3.329,1.882,4.864,3.432,2.5,2.524,5.4,5.445,11.722,5.445q10.206,0,12.758-10.145-3.827,5.073-8.93,3.8c-1.942-.482-3.33-1.882-4.865-3.431C34.736,2.92,31.841,0,25.517,0ZM12.758,15.218Q2.552,15.218,0,25.364q3.828-5.073,8.93-3.805c1.942.482,3.33,1.882,4.865,3.432,2.5,2.524,5.4,5.445,11.722,5.445q10.206,0,12.758-10.145-3.828,5.073-8.931,3.805c-1.941-.483-3.329-1.883-4.864-3.432-2.5-2.524-5.4-5.446-11.722-5.446Z" transform="translate(1220 507)" fill-rule="evenodd" fill="url(#a)"/></g></svg>